<svg width="50" height="50" viewBox="0 0 50 50" fill="none" xmlns="http://www.w3.org/2000/svg">
  <path fill-rule="evenodd" clip-rule="evenodd" d="M25 0C11.193 0 0 11.193 0 25C0 36.046 7.157 45.395 17.098 48.695C18.348 48.939 18.809 48.162 18.809 47.492C18.809 46.883 18.789 45.273 18.779 43.191C11.822 44.713 10.355 39.96 10.355 39.96C9.22 37.073 7.578 36.299 7.578 36.299C5.309 34.748 7.748 34.777 7.748 34.777C10.256 34.941 11.576 37.343 11.576 37.343C13.811 41.147 17.428 40.07 18.853 39.427C19.09 37.797 19.748 36.72 20.473 36.05C14.906 35.373 9.06 33.242 9.06 23.666C9.06 20.933 10.036 18.703 11.623 16.957C11.353 16.319 10.492 13.785 11.849 10.349C11.849 10.349 13.949 9.67 18.75 12.895C20.73 12.339 22.864 12.062 25 12.052C27.134 12.062 29.27 12.339 31.254 12.895C36.051 9.67 38.147 10.349 38.147 10.349C39.507 13.788 38.646 16.322 38.377 16.957C39.97 18.703 40.938 20.933 40.938 23.666C40.938 33.266 35.082 35.366 29.502 36.031C30.402 36.862 31.203 38.507 31.203 41.006C31.203 44.578 31.172 46.668 31.172 47.492C31.172 48.167 31.627 48.95 32.898 48.691C42.847 45.386 50 36.04 50 25C50 11.193 38.807 0 25 0Z" fill="black"/>
</svg>
