<svg width="50" height="50" viewBox="0 0 50 50" fill="none" xmlns="http://www.w3.org/2000/svg">
  <path d="M46.875 13.021C46.156 6.771 40.885 1.979 34.427 1.25C33.552 1.146 29.948 0.833 24.99 0.833H24.958C20 0.833 16.448 1.146 15.573 1.25C9.177 1.969 3.802 6.615 2.969 12.74C2.49 16.302 2.448 20.177 2.625 23.594C2.885 28.646 3.385 33.615 3.385 33.615C3.385 33.615 3.417 34.135 3.479 34.948C3.792 38.219 4.115 41.031 5.302 43.469C7.406 47.844 12.042 49.198 16.615 49.635C21.052 50.052 25.104 49.677 25.104 49.677L25.469 49.167C21.615 48.094 19.917 46.667 19.917 46.667C19.917 46.667 20.24 46.865 20.823 47.135C20.844 47.146 20.865 47.156 20.885 47.167C20.969 47.208 21.052 47.24 21.135 47.271C21.938 47.615 22.74 47.896 23.448 48.115C25.146 48.604 27.188 49.042 29.5 49.302C33.177 49.708 37.396 49.594 41.531 48.344C44.312 47.5 47.552 45.156 49.125 40.219C49.125 40.219 49.125 40.208 49.125 40.198V40.188L49.135 40.156C49.219 39.948 49.302 39.719 49.375 39.469C50.021 37.115 50.333 34.604 50.333 32.083C50.333 31.823 50.396 28.198 50.396 27.885C50.396 24.167 50.146 20.469 49.615 16.802C49.354 15.01 48.458 13.854 46.875 13.021ZM41.833 34.219H35.667V19.167C35.667 16.406 34.458 15 31.969 15C29.198 15 27.833 16.781 27.833 20.302V28.219H21.688V20.302C21.688 16.781 20.323 15 17.552 15C15.073 15 13.854 16.406 13.854 19.167V34.219H7.688V18.823C7.688 16.063 8.406 13.917 9.844 12.375C11.302 10.833 13.229 10.042 15.615 10.042C18.427 10.042 20.531 11.125 21.906 13.292L24.76 17.79L27.615 13.292C28.99 11.125 31.094 10.042 33.906 10.042C36.292 10.042 38.219 10.833 39.677 12.375C41.125 13.917 41.833 16.063 41.833 18.823V34.219Z" fill="black"/>
</svg>
